<svg width="50" height="49" viewBox="0 0 50 49" fill="none" xmlns="http://www.w3.org/2000/svg">
<path opacity="0.26" d="M25 49C38.2548 49 49 47.2091 49 45C49 42.7909 38.2548 41 25 41C11.7452 41 1 42.7909 1 45C1 47.2091 11.7452 49 25 49Z" fill="#343A40"/>
<path d="M7.57746 1H42.4225C43.2863 0.999868 44.1417 1.15451 44.9398 1.45508C45.7379 1.75565 46.4631 2.19625 47.0739 2.75175C47.6847 3.30725 48.1692 3.96676 48.4996 4.69258C48.8301 5.41839 49.0001 6.19629 49 6.98188V28.4989C49.0002 29.4692 48.7407 30.4249 48.2439 31.2836C47.7472 32.1423 47.0281 32.8781 46.1487 33.4275L29.3251 43.9477C28.2536 44.6174 26.9879 44.9834 25.6879 44.9995C24.3879 45.0155 23.1118 44.681 22.0207 44.038L4.00031 33.4144C3.08013 32.8721 2.32361 32.1291 1.79961 31.2531C1.27562 30.3771 1.00074 29.3958 1 28.3986V6.98188C1 5.39539 1.69298 3.87388 2.92649 2.75206C4.16 1.63023 5.83301 1 7.57746 1Z" fill="#E4002B" stroke="#E4002B"/>
<path d="M18.5572 22.0317C18.0832 21.2031 17.7211 20.6281 17.4536 20.2311C18.2609 19.9533 18.9609 19.4297 19.4554 18.7337C19.9499 18.0377 20.214 17.2043 20.2107 16.3506C20.2107 13.0652 17.5175 12.0043 14.8868 12.0043H9V25.3792H11.753V20.5619H13.0904C13.3033 20.5619 13.5113 20.5619 13.7201 20.5709C13.986 20.5909 14.2427 20.6767 14.4673 20.8204C14.6919 20.9641 14.8773 21.1612 15.007 21.3942C15.429 22.0913 15.6561 22.5629 16.2887 23.6239C16.9857 24.7795 17.6897 25.5988 18.9287 25.5988C20.4869 25.5988 20.7038 24.0822 20.7038 24.0822C19.7259 23.7575 19.0274 22.8499 18.5572 22.0317ZM15.181 18.3958H11.7556V14.3989H15.1769C16.4365 14.3989 17.3415 15.0872 17.3415 16.4052C17.3415 17.6439 16.4362 18.3958 15.1769 18.3958H15.181ZM23.981 12.0063V25.3813H26.734V14.0457C26.7303 11.9137 23.9773 12.0017 23.9773 12.0017L23.981 12.0063ZM39.2505 12.0063V19.5363C39.2505 21.6022 38.579 23.0424 36.3706 23.0424C34.1621 23.0424 33.5423 21.5958 33.5423 19.5337V14.0446C33.5423 11.9125 30.7893 12.0005 30.7893 12.0005V19.7295C30.7893 23.1316 32.3696 25.5898 36.3656 25.5898C40.3617 25.5898 42 22.876 42 19.7295V12.0017L39.2505 12.0063Z" fill="white"/>
</svg>
