<svg width="24" height="24" viewBox="0 0 24 24" fill="none" xmlns="http://www.w3.org/2000/svg">
<path d="M11.8 7.4C12.2 7.4 12.6 7.3 12.9 7.2C14.8 6.6 16.2 4.8 16.2 2.6V2.5C16.2 2.4 16.2 2.3 16.2 2.1C16.1 1.7 15.8 1.5 15.4 1.5C15.2 1.5 15.1 1.5 14.9 1.6C13.8 1.8 12.8 2.4 12.1 3.3C11.2 4.4 10.9 5.5 11 6.7C11.1 7.1 11.4 7.4 11.8 7.4ZM12.3 6C12.3 4.9 13.6 3.4 14.8 3C14.9 4.2 13.6 5.8 12.3 6Z" fill="#343A40"/>
<path d="M20.2 16.2L20 16.1C18.5 15.4 17.6 13.7 18.1 12.1C18.3 11.3 18.8 10.6 19.6 10.2C19.8 10.1 20 9.9 20 9.7C20 9.5 20 9.3 19.8 9.1C19.3 8.5 18.7 8 18.1 7.7C17.1 7 16 6.8 14.9 7C14.4 7.1 13.9 7.3 13.5 7.4C13.3 7.5 13.1 7.5 13 7.6C12.6 7.7 12.3 7.7 11.9 7.7C11.4 7.6 11 7.4 10.6 7.3C9.7 7 8.99999 6.9 8.29999 7C7.39999 7.1 6.59999 7.4 5.79999 8C4.79999 8.8 4.09999 9.7 3.69999 10.8C3.29999 12.1 3.19999 13.5 3.49999 15.1C3.79999 16.9 4.59999 18.6 5.69999 20.2C6.19999 20.9 6.69999 21.4 7.19999 21.8C7.59999 22.1 8.1 22.3 8.79999 22.5H9.39999C9.89999 22.4 10.3 22.3 10.7 22.1H10.8C10.9 22.1 11 22 11.1 22C12 21.7 12.9 21.7 13.7 22.1C14.3 22.4 14.8 22.5 15.2 22.6C15.3 22.6 15.4 22.6 15.5 22.6C15.6 22.6 15.7 22.6 15.8 22.6C16.7 22.5 17.3 22 17.8 21.5C18.4 21 18.8 20.3 19.2 19.7C19.7 19 20.1 18.2 20.5 17.3C20.7 16.8 20.6 16.4 20.2 16.2ZM16.6 13.4C16.7 15 17.5 16.3 19 17.2C18.4 18.3 17.7 19.6 16.6 20.6C16 21.2 15.3 21.3 14.6 20.9C13.7 20.5 12.9 20.3 12.1 20.3C11.5 20.3 10.9 20.5 10.4 20.7H10.3C9.99999 20.8 9.69999 21 9.39999 21C8.99999 21.1 8.49999 21 7.99999 20.6C7.39999 20.1 6.99999 19.5 6.49999 18.8C5.59999 17.4 5.1 16 4.89999 14.6C4.69999 13.1 4.8 11.9 5.3 10.8C5.9 9.4 6.99999 8.6 8.39999 8.4C8.59999 8.4 8.69999 8.4 8.89999 8.4C9.39999 8.4 9.89999 8.5 10.3 8.7L10.5 8.8C10.8 8.9 11.1 9 11.5 9.1C12.3 9.3 13 9.3 13.9 9H14C14.4 8.8 14.9 8.7 15.3 8.6C16.3 8.4 17.2 8.6 18.1 9.3C18.2 9.4 18.3 9.5 18.5 9.6C17.1 10.4 16.5 11.8 16.6 13.4Z" fill="#343A40"/>
</svg>
