<svg width="24" height="24" viewBox="0 0 24 24" fill="none" xmlns="http://www.w3.org/2000/svg">
<path fill-rule="evenodd" clip-rule="evenodd" d="M12 4.04054C10.4262 4.04054 8.90939 4.70283 7.78534 5.89421C6.66014 7.08679 6.0222 8.71157 6.0222 10.4128C6.0222 12.894 7.54296 15.2895 9.19498 17.1377C10.0074 18.0467 10.8222 18.7906 11.4345 19.3074C11.6526 19.4914 11.8442 19.646 12 19.7684C12.1558 19.646 12.3474 19.4914 12.5655 19.3074C13.1778 18.7906 13.9926 18.0467 14.805 17.1377C16.457 15.2895 17.9778 12.894 17.9778 10.4128C17.9778 8.71157 17.3399 7.08679 16.2147 5.89421C15.0906 4.70283 13.5738 4.04054 12 4.04054ZM12 20.7297C11.5643 21.3613 11.5639 21.361 11.5639 21.361L11.5617 21.3595L11.5567 21.3559L11.5395 21.3436C11.5249 21.3331 11.5041 21.318 11.4774 21.2984C11.4242 21.2593 11.3477 21.2024 11.2513 21.1286C11.0586 20.9811 10.7858 20.7658 10.4596 20.4905C9.80834 19.9408 8.93839 19.1471 8.06612 18.1712C6.34869 16.2498 4.5 13.4869 4.5 10.4128C4.5 8.32536 5.28204 6.31669 6.68442 4.83032C8.08794 3.34273 9.99924 2.5 12 2.5C14.0008 2.5 15.9121 3.34273 17.3156 4.83032C18.718 6.31669 19.5 8.32536 19.5 10.4128C19.5 13.4869 17.6513 16.2498 15.9339 18.1712C15.0616 19.1471 14.1917 19.9408 13.5404 20.4905C13.2142 20.7658 12.9414 20.9811 12.7487 21.1286C12.6523 21.2024 12.5758 21.2593 12.5226 21.2984C12.4959 21.318 12.4751 21.3331 12.4605 21.3436L12.4433 21.3559L12.4367 21.3606C12.4367 21.3606 12.4357 21.3613 12 20.7297ZM12 20.7297L12.4357 21.3613C12.174 21.5462 11.8256 21.5459 11.5639 21.361L12 20.7297Z" fill="#343A40"/>
<path fill-rule="evenodd" clip-rule="evenodd" d="M11.946 8.34442C11.1421 8.34442 10.4904 9.00397 10.4904 9.81756C10.4904 10.6312 11.1421 11.2907 11.946 11.2907C12.75 11.2907 13.4016 10.6312 13.4016 9.81756C13.4016 9.00397 12.75 8.34442 11.946 8.34442ZM9.08875 9.81756C9.08875 8.22051 10.368 6.92584 11.946 6.92584C13.5241 6.92584 14.8033 8.22051 14.8033 9.81756C14.8033 11.4146 13.5241 12.7093 11.946 12.7093C10.368 12.7093 9.08875 11.4146 9.08875 9.81756Z" fill="#343A40"/>
</svg>
