<svg width="24" height="24" viewBox="0 0 24 24" fill="none" xmlns="http://www.w3.org/2000/svg">
<path d="M19.05 16.15L17.15 18.05L16.45 17.35C16.25 17.15 15.95 17.15 15.75 17.35C15.55 17.55 15.55 17.85 15.75 18.05L16.85 19.05C17.05 19.25 17.35 19.25 17.55 19.05L19.75 16.85C19.95 16.65 19.95 16.35 19.75 16.15C19.55 15.95 19.25 15.95 19.05 16.15Z" fill="white"/>
<path d="M19.45 13.55V6.34995C19.45 5.04995 18.25 4.04995 16.95 4.04995H14.75V3.14995C14.75 2.74995 14.45 2.44995 14.05 2.44995C13.65 2.44995 13.35 2.74995 13.35 3.14995V3.94995H7.95V3.14995C7.95 2.74995 7.65 2.44995 7.25 2.44995C6.85 2.44995 6.55 2.84995 6.55 3.14995V4.04995H4.45C3.15 4.04995 1.95 5.04995 1.95 6.34995V17.55C1.95 18.85 3.15 19.85 4.45 19.85H14.45C15.25 20.85 16.45 21.55 17.85 21.55C20.15 21.55 22.05 19.75 22.05 17.45C22.05 15.65 20.95 14.15 19.45 13.55ZM3.35 6.34995C3.35 5.84995 3.75 5.44995 4.45 5.44995H6.55V6.44995C6.55 6.84995 6.85 7.14995 7.25 7.14995C7.65 7.14995 7.95 6.84995 7.95 6.44995V5.44995H13.45V6.44995C13.45 6.84995 13.75 7.14995 14.15 7.14995C14.55 7.14995 14.75 6.74995 14.75 6.34995V5.34995H16.95C17.65 5.34995 18.05 5.84995 18.05 6.24995V7.54995H3.35V6.34995ZM13.65 17.35C13.65 17.75 13.75 18.15 13.75 18.45H4.45C3.75 18.45 3.35 17.95 3.35 17.55V8.94995H18.15V13.25C18.05 13.25 17.95 13.25 17.85 13.25C15.55 13.25 13.65 15.05 13.65 17.35ZM17.85 20.25C16.25 20.25 14.95 18.95 14.95 17.35C14.95 15.75 16.25 14.45 17.85 14.45C19.45 14.45 20.75 15.75 20.75 17.35C20.75 18.95 19.45 20.25 17.85 20.25Z" fill="white"/>
<path d="M7.75 10.75C7.65 10.65 7.65 10.65 7.55 10.65C7.45 10.65 7.45 10.65 7.35 10.65H5.65C5.45 10.65 5.35 10.75 5.25 10.85C5.15 10.95 5.05 11.15 5.05 11.25V12.55C5.05 12.75 5.15 12.85 5.25 12.95C5.35 13.05 5.55 13.15 5.65 13.15H7.35C7.55 13.15 7.65 13.05 7.75 12.95C7.85 12.85 7.95 12.65 7.95 12.55V11.25C7.95 11.15 7.95 11.15 7.95 11.05C7.85 10.85 7.85 10.85 7.75 10.75Z" fill="white"/>
<path d="M16.35 10.75C16.25 10.65 16.25 10.65 16.15 10.65C16.05 10.65 16.05 10.65 15.95 10.65H14.25C14.05 10.65 13.95 10.75 13.85 10.85C13.75 10.95 13.65 11.15 13.65 11.25V12.55C13.65 12.75 13.75 12.85 13.85 12.95C13.95 13.05 14.15 13.15 14.25 13.15H15.95C16.15 13.15 16.25 13.05 16.35 12.95C16.45 12.85 16.55 12.65 16.55 12.55V11.25C16.55 11.15 16.55 11.15 16.55 11.05C16.45 10.85 16.45 10.85 16.35 10.75Z" fill="white"/>
<path d="M10.05 13.05H11.75C11.95 13.05 12.05 12.95 12.15 12.85C12.25 12.75 12.35 12.55 12.35 12.45V11.15C12.35 11.05 12.25 10.85 12.15 10.75C12.05 10.65 11.95 10.55 11.75 10.55H10.05C9.85 10.55 9.75 10.65 9.65 10.75C9.55 10.85 9.45 11.05 9.45 11.15V12.45C9.45 12.65 9.55 12.75 9.65 12.85C9.75 12.95 9.85 13.05 10.05 13.05Z" fill="white"/>
<path d="M7.35 14.55H5.65C5.45 14.55 5.35 14.65 5.25 14.75C5.15 14.85 5.05 15.05 5.05 15.15V16.45C5.05 16.65 5.15 16.75 5.25 16.85C5.35 16.85 5.55 16.95 5.65 16.95H7.35C7.55 16.95 7.65 16.85 7.75 16.75C7.85 16.65 7.95 16.45 7.95 16.35V15.05C7.95 14.85 7.85 14.75 7.75 14.65C7.65 14.55 7.55 14.55 7.35 14.55Z" fill="white"/>
<path d="M11.65 14.55H9.95C9.75 14.55 9.65 14.65 9.55 14.75C9.45 14.85 9.35 15.05 9.35 15.15V16.45C9.35 16.65 9.45 16.75 9.55 16.85C9.65 16.95 9.85 17.05 9.95 17.05H11.65C11.85 17.05 11.95 16.95 12.05 16.85C12.15 16.75 12.25 16.55 12.25 16.45V15.15C12.25 15.05 12.15 14.85 12.05 14.75C11.95 14.65 11.85 14.55 11.65 14.55Z" fill="white"/>
</svg>
