<svg width="24" height="24" viewBox="0 0 24 24" fill="none" xmlns="http://www.w3.org/2000/svg">
<path d="M11.6668 5.92452C11.238 5.92452 10.902 6.27219 10.902 6.68939V12.0203L8.52623 14.396C8.22492 14.6973 8.22492 15.184 8.52623 15.4854C8.67688 15.636 8.8739 15.7056 9.07091 15.7056C9.26792 15.7056 9.46493 15.636 9.61559 15.4854L12.2115 12.8894C12.281 12.8199 12.339 12.7388 12.3737 12.6461C12.3737 12.6461 12.3737 12.6345 12.3737 12.6229C12.4085 12.5418 12.4317 12.4491 12.4317 12.3564V6.68939C12.4317 6.2606 12.084 5.92452 11.6668 5.92452ZM20.1847 5.9477C20.3353 6.09835 20.5323 6.16789 20.7293 6.16789C20.9264 6.16789 21.1234 6.09835 21.274 5.9477C21.5753 5.64639 21.5753 5.15965 21.274 4.85834L19.1417 2.72598C18.8403 2.42467 18.3536 2.42467 18.0523 2.72598C17.751 3.02729 17.751 3.51403 18.0523 3.81534L18.5738 4.33684L17.5772 5.33349C15.9779 3.97758 13.9151 3.16636 11.6668 3.16636C6.61406 3.16636 2.5 7.28042 2.5 12.3332C2.5 17.3859 6.61406 21.5 11.6668 21.5C16.7196 21.5 20.8336 17.3859 20.8336 12.3332C20.8336 10.0849 20.0108 8.02211 18.6665 6.42284L19.6632 5.4262L20.1847 5.9477ZM19.2923 12.3332C19.2923 16.54 15.8736 19.9703 11.6552 19.9703C7.43687 19.9703 4.01815 16.5515 4.01815 12.3332C4.01815 8.11482 7.43687 4.6961 11.6552 4.6961C15.862 4.6961 19.2923 8.11482 19.2923 12.3332Z" fill="#343A40" stroke="#343A40" stroke-width="0.2"/>
</svg>
