<svg width="24" height="24" viewBox="0 0 24 24" fill="none" xmlns="http://www.w3.org/2000/svg">
<path fill-rule="evenodd" clip-rule="evenodd" d="M9.69432 6.83046C9.69432 5.54338 10.7377 4.5 12.0248 4.5C13.3119 4.5 14.3552 5.54338 14.3552 6.83046C14.3552 8.11754 13.3119 9.16093 12.0248 9.16093C10.7377 9.16093 9.69432 8.11754 9.69432 6.83046ZM12.0248 3C9.90928 3 8.19432 4.71496 8.19432 6.83046C8.19432 8.94597 9.90928 10.6609 12.0248 10.6609C14.1403 10.6609 15.8552 8.94597 15.8552 6.83046C15.8552 4.71496 14.1403 3 12.0248 3ZM9.71424 12.2415C8.69834 12.2415 7.72404 12.645 7.00569 13.3634C6.28734 14.0817 5.88377 15.056 5.88377 16.0719V19.6122C5.88377 20.0264 6.21956 20.3622 6.63377 20.3622C7.04799 20.3622 7.38377 20.0264 7.38377 19.6122V16.0719C7.38377 15.4538 7.6293 14.8611 8.06635 14.424C8.5034 13.987 9.09616 13.7415 9.71424 13.7415H14.3349C14.953 13.7415 15.5458 13.987 15.9828 14.424C16.4199 14.8611 16.6654 15.4538 16.6654 16.0719V19.6122C16.6654 20.0264 17.0012 20.3622 17.4154 20.3622C17.8296 20.3622 18.1654 20.0264 18.1654 19.6122V16.0719C18.1654 15.056 17.7618 14.0817 17.0435 13.3634C16.3251 12.645 15.3508 12.2415 14.3349 12.2415H9.71424ZM16.4422 3.99303C16.401 3.58087 16.7017 3.21336 17.1139 3.17217C19.2189 2.96183 21.0959 4.49777 21.3062 6.6028C21.5166 8.70782 19.9806 10.5848 17.8756 10.7951C17.4634 10.8363 17.0959 10.5356 17.0547 10.1234C17.0136 9.71127 17.3143 9.34376 17.7264 9.30257C19.0072 9.1746 19.9416 8.03264 19.8136 6.75194C19.6857 5.47124 18.5437 4.53677 17.263 4.66474C16.8509 4.70593 16.4833 4.40519 16.4422 3.99303ZM6.58104 10.9426C6.99525 10.9426 7.33104 10.6068 7.33104 10.1926C7.33104 9.77841 6.99525 9.44263 6.58104 9.44263C5.29396 9.44263 4.25058 8.39924 4.25058 7.11216C4.25058 5.82508 5.29396 4.7817 6.58104 4.7817C6.99525 4.7817 7.33104 4.44591 7.33104 4.0317C7.33104 3.61748 6.99525 3.2817 6.58104 3.2817C4.46553 3.2817 2.75058 4.99665 2.75058 7.11216C2.75058 9.22767 4.46553 10.9426 6.58104 10.9426ZM17.8461 12.6487C17.9496 12.2476 18.3587 12.0064 18.7598 12.11C19.5815 12.3222 20.3095 12.8013 20.8295 13.472C21.3495 14.1428 21.632 14.9673 21.6326 15.816V15.8165V17.3568C21.6326 17.771 21.2968 18.1068 20.8826 18.1068C20.4684 18.1068 20.1326 17.771 20.1326 17.3568V15.8168C20.1321 15.3005 19.9603 14.799 19.644 14.391C19.3276 13.9829 18.8847 13.6915 18.3848 13.5624C17.9837 13.4588 17.7425 13.0497 17.8461 12.6487ZM5.12303 12.11C5.52409 12.0064 5.93316 12.2476 6.03672 12.6487C6.14027 13.0497 5.89909 13.4588 5.49803 13.5624C4.99807 13.6915 4.55514 13.9829 4.23878 14.391C3.92249 14.799 3.75063 15.3005 3.75018 15.8168V17.3568C3.75018 17.771 3.4144 18.1068 3.00018 18.1068C2.58597 18.1068 2.25018 17.771 2.25018 17.3568V15.8165V15.816C2.25082 14.9673 2.5333 14.1428 3.05327 13.472C3.57325 12.8013 4.30127 12.3222 5.12303 12.11Z" fill="#343A40"/>
</svg>
