<svg width="24" height="24" viewBox="0 0 24 24" fill="none" xmlns="http://www.w3.org/2000/svg">
<path d="M12.0057 2.3999C17.3108 2.3999 21.6 6.70296 21.6 11.9999C21.6 17.2968 17.2995 21.5999 12.0057 21.5999C6.71184 21.5999 2.40002 17.3194 2.40002 12.0112C2.40002 6.70296 6.70055 2.3999 12.0057 2.3999ZM19.32 8.22767C18.2138 6.0479 16.1482 4.44414 13.6536 3.9472C14.7598 5.0879 15.6177 6.59002 16.1143 8.22767H19.32ZM15.2903 12.0112C15.2903 11.2206 15.1887 10.4074 15.042 9.65073H9.01449C8.83389 10.3961 8.76616 11.1867 8.76616 12.0112C8.76616 12.8357 8.83389 13.5472 8.98062 14.2926H15.0759C15.2226 13.5472 15.2903 12.7905 15.2903 12.0112ZM14.6131 8.22767C14.0826 6.65779 13.1457 5.26861 12.0057 4.29731C10.8656 5.2912 9.94006 6.65779 9.39826 8.22767H14.6131ZM10.3351 3.9472C7.87445 4.44414 5.84271 6.0479 4.66881 8.22767H7.87445C8.40496 6.59002 9.22895 5.0879 10.3351 3.9472ZM3.7771 12.0112C3.7771 12.8018 3.87868 13.5811 4.09315 14.2926H7.54711C7.40038 13.5472 7.33265 12.7905 7.33265 12.0112C7.33265 11.2319 7.40038 10.4074 7.54711 9.65073H4.12701C3.87868 10.3961 3.76581 11.1867 3.76581 12.0112H3.7771ZM4.66881 15.727C5.77498 17.9406 7.84059 19.5783 10.3351 20.0752C9.22895 18.9006 8.3711 17.3985 7.87445 15.727H4.66881ZM12.017 19.7251C13.1909 18.7312 14.1164 17.3307 14.6582 15.727H9.37569C9.9062 17.3307 10.8431 18.7199 12.017 19.7251ZM13.6988 20.0865C16.1933 19.5896 18.2589 17.9406 19.3651 15.7383H16.1595C15.6628 17.4098 14.805 18.9119 13.6988 20.0865ZM16.5207 14.3039H19.9408C20.1552 13.5924 20.2568 12.8018 20.2568 12.0225C20.2568 11.2432 20.1552 10.4187 19.9408 9.66202H16.5207C16.6674 10.4074 16.7351 11.2319 16.7351 12.0225C16.7351 12.8131 16.6674 13.5585 16.5207 14.3039Z" fill="#343A40"/>
</svg>
